<svg width="182" height="42" viewBox="0 0 182 42" fill="none" xmlns="http://www.w3.org/2000/svg">
<g clip-path="url(#clip0)">
<path d="M0.091809 40.7583C-0.199858 41.3417 0.241809 41.9917 0.900142 41.9917C19.5168 42.025 33.4085 24.025 23.2085 3.51667L21.6918 0.475C21.3751 -0.158333 20.4835 -0.158333 20.1668 0.475L0.091809 40.7583Z" fill="#65BD7D"/>
<path d="M32.5243 22.225C32.2077 21.5917 31.3077 21.5917 30.9993 22.225L26.3827 31.2417C23.8993 36.2083 27.0243 42.0083 33.0077 42.0083H41.1493C41.7827 42.0083 42.1993 41.3417 41.916 40.775L32.5243 22.225Z" fill="#65BD7D"/>
</g>
<path d="M54 34.532H63.4093V31.4902H60.4905L62.6028 25.3677H72.2041L74.3164 31.4902H71.436V34.532H80.8453V31.4902H78.2338L69.5926 7H65.2528L56.6116 31.4902H54V34.532ZM63.5629 22.2479L66.9042 12.6936C67.2498 11.5627 67.3651 10.5877 67.3651 10.5877H67.4803C67.4803 10.5877 67.5571 11.5627 67.9411 12.6936L71.244 22.2479H63.5629Z" fill="#323A45"/>
<path d="M79.4992 17.7242H81.9572L88.2173 34.532H92.4034L98.7019 17.7242H101.121V14.7994H92.4418V17.7242H94.9382L90.7904 29.2284C90.4832 30.0863 90.368 31.0613 90.368 31.0613H90.2527C90.2527 31.0613 90.1375 30.0863 89.8303 29.2284L85.7209 17.7242H88.2173V14.7994H79.4992V17.7242Z" fill="#323A45"/>
<path d="M102.096 29.0334C102.096 33.0891 105.323 35 108.549 35C113.272 35 114.962 30.8273 114.962 30.8273H115.039C115.039 30.8273 114.885 31.3343 114.885 32.1142V32.3872C114.885 33.6741 115.577 34.532 117.305 34.532H121.184V31.6072H119.225C118.688 31.6072 118.38 31.3343 118.38 30.7493V21.9359C118.38 16.9443 115.769 14.3315 110.814 14.3315C106.283 14.3315 103.441 16.6713 103.441 16.6713L104.938 19.3621C104.938 19.3621 107.435 17.4513 110.507 17.4513C112.888 17.4513 114.655 18.5432 114.655 21.6629V22.4039H113.426C110.2 22.4039 102.096 22.8329 102.096 29.0334ZM105.86 28.7214C105.86 24.9387 111.967 24.8607 113.733 24.8607H114.693V25.6797C114.693 28.6434 112.658 32.0752 109.355 32.0752C107.128 32.0752 105.86 30.4763 105.86 28.7214Z" fill="#323A45"/>
<path d="M123.105 24.6657C123.105 30.7883 126.369 35 131.593 35C136.585 35 138.16 31.0613 138.16 31.0613H138.237C138.237 31.0613 138.121 31.4512 138.121 32.1142V32.3872C138.121 33.6741 138.813 34.532 140.541 34.532H144.42V31.6072H142.461C141.924 31.6072 141.616 31.3343 141.616 30.7493V7H134.665V9.92479H137.891V16.1643C137.891 17.0223 138.006 17.6462 138.006 17.6462H137.929C137.929 17.6462 136.355 14.3315 131.938 14.3315C126.715 14.3315 123.105 18.3872 123.105 24.6657ZM126.907 24.6657C126.907 20.1811 129.403 17.6462 132.514 17.6462C136.201 17.6462 138.006 21.078 138.006 24.7047C138.006 29.6184 135.279 31.7242 132.399 31.7242C129.173 31.7242 126.907 28.9554 126.907 24.6657Z" fill="#323A45"/>
<path d="M146.16 28.9845C146.16 33.0733 149.405 34.9998 152.651 34.9998C157.402 34.9998 159.102 30.793 159.102 30.793H159.179C159.179 30.793 159.025 31.3041 159.025 32.0905V32.3657C159.025 33.6631 159.72 34.528 161.459 34.528H165.36V31.5793H163.39C162.849 31.5793 162.54 31.3041 162.54 30.7144V21.8291C162.54 16.7967 159.913 14.1626 154.93 14.1626C150.371 14.1626 147.513 16.5215 147.513 16.5215L149.019 19.2343C149.019 19.2343 151.53 17.3078 154.621 17.3078C157.016 17.3078 158.793 18.4087 158.793 21.5539V22.3009H157.557C154.312 22.3009 146.16 22.7334 146.16 28.9845ZM149.946 28.67C149.946 24.8564 156.089 24.7778 157.866 24.7778H158.832V25.6034C158.832 28.5914 156.784 32.0511 153.462 32.0511C151.221 32.0511 149.946 30.4392 149.946 28.67Z" fill="#65BD7D"/>
<ellipse cx="178.8" cy="31.7446" rx="3.2" ry="3.25581" fill="#65BC7B"/>
<ellipse cx="178.8" cy="17.4184" rx="3.2" ry="3.25581" fill="#65BC7B"/>
<defs>
<clipPath id="clip0">
<rect width="42" height="42" fill="white"/>
</clipPath>
</defs>
</svg>
